<svg preserveAspectRatio="none" width="100%" height="100%" overflow="visible" style="display: block;" viewBox="0 0 40 40" fill="none" xmlns="http://www.w3.org/2000/svg">
<g id="&#229;&#174;&#154;&#229;&#136;&#153;&#229;&#155;&#190;&#230;&#160;&#135;-&#228;&#184;&#138;&#228;&#184;&#139;&#229;&#183;&#166;&#229;&#143;&#179;&#228;&#184;&#180;&#230;&#160;&#188;">
<path d="M0 14H12V26H0V14Z" fill="var(--fill-0, #3F4F62)"/>
<path d="M28 14H40V26H28V14Z" fill="var(--fill-0, #3F4F62)"/>
<path d="M14 0H26V12H14V0Z" fill="var(--fill-0, #3F4F62)"/>
<path d="M14 28H26V40H14V28Z" fill="var(--fill-0, #3F4F62)"/>
<path d="M14 14H26V26H14V14Z" fill="var(--fill-0, #3F4F62)"/>
<path d="M39.5 28.5V39.5H28.5V28.5H39.5ZM25.5 28.5V39.5H14.5V28.5H25.5ZM11.5 28.5V39.5H0.5V28.5H11.5ZM39.5 14.5V25.5H28.5V14.5H39.5ZM25.5 14.5V25.5H14.5V14.5H25.5ZM11.5 14.5V25.5H0.5V14.5H11.5ZM39.5 0.5V11.5H28.5V0.5H39.5ZM25.5 0.5V11.5H14.5V0.5H25.5ZM11.5 0.5V11.5H0.5V0.5H11.5Z" stroke="var(--stroke-0, #3F4F62)"/>
</g>
</svg>
