<svg preserveAspectRatio="none" width="100%" height="100%" overflow="visible" style="display: block;" viewBox="0 0 40 40" fill="none" xmlns="http://www.w3.org/2000/svg">
<g id="&#229;&#174;&#154;&#229;&#136;&#153;&#229;&#155;&#190;&#230;&#160;&#135;-&#229;&#145;&#168;&#229;&#155;&#180;&#228;&#184;&#128;&#229;&#156;&#136;">
<path d="M14 14H26V26H14V14Z" fill="var(--fill-0, #3F4F62)"/>
<path d="M39.5 28.5V39.5H28.5V28.5H39.5ZM25.5 28.5V39.5H14.5V28.5H25.5ZM11.5 28.5V39.5H0.5V28.5H11.5ZM39.5 14.5V25.5H28.5V14.5H39.5ZM25.5 14.5V25.5H14.5V14.5H25.5ZM11.5 14.5V25.5H0.5V14.5H11.5ZM39.5 0.5V11.5H28.5V0.5H39.5ZM25.5 0.5V11.5H14.5V0.5H25.5ZM11.5 0.5V11.5H0.5V0.5H11.5Z" stroke="var(--stroke-0, #3F4F62)"/>
</g>
</svg>
