<svg preserveAspectRatio="none" width="100%" height="100%" overflow="visible" style="display: block;" viewBox="0 0 26.5 27" fill="none" xmlns="http://www.w3.org/2000/svg">
<g id="&#229;&#174;&#154;&#229;&#136;&#153;&#229;&#155;&#190;&#230;&#160;&#135;-&#230;&#129;&#176;&#229;&#165;&#189;&#230;&#156;&#137;">
<g id="&#229;&#174;&#154;&#229;&#136;&#153;&#229;&#155;&#190;&#230;&#160;&#135;-&#230;&#129;&#176;&#229;&#165;&#189;&#230;&#156;&#137;_2">
<path d="M13 7C16.3137 7 19 9.68629 19 13C19 15.2205 17.7929 17.1578 16 18.1953V21C16 22.1046 15.1046 23 14 23H12C10.8954 23 10 22.1046 10 21V18.1953C8.20709 17.1578 7.00001 15.2205 7.00001 13C7.00001 9.68629 9.68631 7 13 7Z" fill="var(--fill-0, #0C223D)"/>
<path d="M12 0H14V5H12V0Z" fill="var(--fill-0, #0C223D)"/>
<path d="M5 13.5V15.5H0L8.74228e-08 13.5H5Z" fill="var(--fill-0, #0C223D)"/>
<path d="M26.5 13.5V15.5H21.5V13.5H26.5Z" fill="var(--fill-0, #0C223D)"/>
<path d="M2.00003 6.00003L3.0235 4.97656L5.2162 7.16927L4.19273 8.19273L2.00003 6.00003Z" fill="var(--fill-0, #0C223D)"/>
<path d="M20 21.0235L21.0235 20L23.2162 22.1927L22.1927 23.2162L20 21.0235Z" fill="var(--fill-0, #0C223D)"/>
<path d="M23.2162 6.00003L22.1927 4.97656L20 7.16927L21.0235 8.19273L23.2162 6.00003Z" fill="var(--fill-0, #0C223D)"/>
<path d="M5.21619 21.0235L4.19272 20L2.00001 22.1927L3.02348 23.2162L5.21619 21.0235Z" fill="var(--fill-0, #0C223D)"/>
<path d="M10 24.9231C10 24.4133 10.4133 24 10.9231 24H15.0769C15.5867 24 16 24.4133 16 24.9231C16 26.0701 15.0701 27 13.9231 27H12.0769C10.9299 27 10 26.0701 10 24.9231Z" fill="var(--fill-0, #0C223D)"/>
</g>
</g>
</svg>
